<svg xmlns="http://www.w3.org/2000/svg" xmlns:xlink="http://www.w3.org/1999/xlink" width="854" zoomAndPan="magnify" viewBox="0 0 640.5 359.999987" height="480" preserveAspectRatio="xMidYMid meet" version="1.0"><defs><g/><clipPath id="1fb8458f39"><path d="M 166.109375 131 L 199 131 L 199 167 L 166.109375 167 Z M 166.109375 131 " clip-rule="nonzero"/></clipPath><clipPath id="0ea772feb0"><path d="M 182.253906 142.714844 L 266.847656 142.714844 L 266.847656 211.179688 L 182.253906 211.179688 Z M 182.253906 142.714844 " clip-rule="nonzero"/></clipPath><clipPath id="0fda127e2b"><path d="M 252 131 L 285.347656 131 L 285.347656 167 L 252 167 Z M 252 131 " clip-rule="nonzero"/></clipPath></defs><g fill="#00bf63" fill-opacity="1"><g transform="translate(38.535847, 350.992883)"><g><path d="M 23.5 0 C 21.207031 0 19.410156 -0.648438 18.109375 -1.953125 C 16.804688 -3.265625 16.15625 -5.0625 16.15625 -7.34375 L 16.15625 -335.3125 C 16.15625 -337.59375 16.804688 -339.382812 18.109375 -340.6875 C 19.410156 -342 21.207031 -342.65625 23.5 -342.65625 L 100.84375 -342.65625 C 103.125 -342.65625 104.914062 -342 106.21875 -340.6875 C 107.519531 -339.382812 108.171875 -337.59375 108.171875 -335.3125 L 108.171875 -81.75 C 108.171875 -79.789062 109.148438 -78.8125 111.109375 -78.8125 L 233.984375 -78.8125 C 236.265625 -78.8125 238.054688 -78.15625 239.359375 -76.84375 C 240.671875 -75.539062 241.328125 -73.75 241.328125 -71.46875 L 241.328125 -7.34375 C 241.328125 -5.0625 240.671875 -3.265625 239.359375 -1.953125 C 238.054688 -0.648438 236.265625 0 233.984375 0 Z M 23.5 0 "/></g></g></g><g fill="#00bf63" fill-opacity="1"><g transform="translate(288.176517, 350.992883)"><g><path d="M 206.078125 -337.75 C 207.710938 -341.019531 210.648438 -342.65625 214.890625 -342.65625 L 291.25 -342.65625 C 293.53125 -342.65625 295.320312 -342 296.625 -340.6875 C 297.9375 -339.382812 298.59375 -337.59375 298.59375 -335.3125 L 298.59375 -7.34375 C 298.59375 -5.0625 297.9375 -3.265625 296.625 -1.953125 C 295.320312 -0.648438 293.53125 0 291.25 0 L 213.90625 0 C 211.625 0 209.828125 -0.648438 208.515625 -1.953125 C 207.210938 -3.265625 206.5625 -5.0625 206.5625 -7.34375 L 206.5625 -195.3125 C 206.5625 -196.613281 206.15625 -197.425781 205.34375 -197.75 C 204.53125 -198.082031 203.796875 -197.597656 203.140625 -196.296875 L 171.8125 -144.40625 C 169.851562 -141.132812 166.914062 -139.5 163 -139.5 L 150.28125 -139.5 C 146.363281 -139.5 143.425781 -141.132812 141.46875 -144.40625 L 110.140625 -196.78125 C 109.484375 -198.082031 108.75 -198.570312 107.9375 -198.25 C 107.125 -197.925781 106.71875 -197.109375 106.71875 -195.796875 L 106.71875 -7.34375 C 106.71875 -5.0625 106.0625 -3.265625 104.75 -1.953125 C 103.445312 -0.648438 101.65625 0 99.375 0 L 22.03125 0 C 19.738281 0 17.941406 -0.648438 16.640625 -1.953125 C 15.335938 -3.265625 14.6875 -5.0625 14.6875 -7.34375 L 14.6875 -335.3125 C 14.6875 -337.59375 15.335938 -339.382812 16.640625 -340.6875 C 17.941406 -342 19.738281 -342.65625 22.03125 -342.65625 L 98.390625 -342.65625 C 102.304688 -342.65625 105.242188 -341.019531 107.203125 -337.75 L 155.171875 -256.5 C 155.828125 -255.519531 156.5625 -255.03125 157.375 -255.03125 C 158.1875 -255.03125 158.757812 -255.519531 159.09375 -256.5 Z M 206.078125 -337.75 "/></g></g></g><g clip-path="url(#1fb8458f39)"><path fill="#00bf63" d="M 186.859375 166.667969 C 187.121094 166.640625 187.386719 166.617188 187.648438 166.601562 C 190.515625 166.21875 193.046875 164.824219 194.980469 162.679688 C 196.546875 160.96875 197.574219 158.902344 198.164062 156.480469 C 198.664062 154.585938 198.757812 152.464844 198.441406 150.375 C 197.96875 146.1875 196.324219 142.238281 193.519531 138.765625 C 192.636719 137.660156 191.621094 136.554688 190.480469 135.59375 C 187.925781 133.421875 185.304688 132.183594 182.476562 131.5 C 180.605469 131.132812 178.871094 131 177.054688 131.289062 C 174.183594 131.789062 171.777344 133.054688 169.839844 135.183594 C 168.273438 136.910156 167.144531 139.238281 166.695312 141.792969 C 166.40625 143.136719 166.261719 144.464844 166.367188 145.78125 L 166.390625 146.175781 C 166.433594 146.570312 166.457031 146.964844 166.496094 147.359375 L 166.523438 147.742188 C 166.90625 150.757812 167.933594 153.570312 169.472656 156.21875 C 170.695312 158.230469 172.183594 160.085938 173.894531 161.667969 C 176.316406 163.839844 178.949219 165.339844 181.777344 166.023438 C 183.554688 166.667969 185.28125 166.785156 186.859375 166.667969 " fill-opacity="1" fill-rule="nonzero"/></g><path fill="#00bf63" d="M 191.230469 126.417969 C 192.019531 129.578125 193.335938 132.34375 195.046875 134.710938 C 196.757812 137.082031 198.597656 138.792969 200.835938 140.105469 C 202.679688 141.292969 204.652344 141.949219 206.757812 142.082031 L 207.8125 142.082031 C 209.917969 142.082031 211.890625 141.554688 213.601562 140.371094 C 215.316406 139.449219 216.894531 138.003906 218.210938 136.289062 C 220.050781 133.921875 221.238281 131.027344 221.765625 127.605469 C 221.894531 126.15625 222.027344 124.707031 222.027344 123.128906 C 222.027344 121.945312 221.894531 120.761719 221.765625 119.574219 C 221.5 117.46875 220.972656 115.496094 220.183594 113.519531 C 218.867188 110.230469 217.027344 107.464844 214.65625 105.363281 C 212.945312 103.78125 211.101562 102.597656 209.128906 101.9375 C 206.628906 101.015625 204.128906 100.886719 201.625 101.542969 C 199.257812 102.070312 197.152344 103.386719 195.308594 105.363281 C 193.730469 107.070312 192.675781 108.914062 191.753906 111.152344 C 190.835938 113.785156 190.308594 116.546875 190.308594 119.707031 C 190.308594 120.234375 190.4375 120.761719 190.4375 121.550781 C 190.570312 123.128906 190.835938 124.839844 191.230469 126.417969 " fill-opacity="1" fill-rule="nonzero"/><path fill="#00bf63" d="M 228.609375 132.605469 C 229.527344 135.238281 230.84375 137.34375 232.6875 139.054688 C 235.058594 141.292969 237.820312 142.609375 240.980469 142.738281 L 241.769531 142.738281 C 243.347656 142.738281 244.796875 142.34375 246.375 142.34375 C 248.613281 141.421875 250.589844 140.105469 252.5625 138.265625 C 254.535156 136.289062 256.117188 134.054688 257.300781 131.554688 C 259.011719 128 259.933594 124.3125 260.0625 120.363281 C 260.0625 118.128906 259.933594 115.890625 259.40625 113.914062 C 258.746094 111.152344 257.828125 108.914062 256.378906 106.941406 C 254.007812 103.648438 250.851562 101.808594 247.164062 101.28125 C 247.035156 101.28125 247.035156 101.28125 246.902344 101.28125 L 243.875 101.28125 C 242.164062 101.542969 240.320312 102.070312 238.742188 102.992188 C 236.636719 104.175781 234.664062 105.886719 232.949219 107.992188 C 231.109375 110.230469 229.792969 112.863281 228.738281 115.757812 C 227.816406 118.390625 227.421875 121.15625 227.292969 123.917969 C 227.292969 125.105469 227.292969 126.289062 227.421875 127.472656 C 227.6875 129.316406 228.082031 131.027344 228.609375 132.605469 " fill-opacity="1" fill-rule="nonzero"/><g clip-path="url(#0ea772feb0)"><path fill="#00bf63" d="M 261.761719 177.09375 C 260.050781 174.589844 257.945312 172.222656 255.445312 170.117188 C 253.734375 168.535156 252.023438 166.824219 250.574219 164.984375 C 248.996094 163.007812 247.546875 160.902344 246.363281 159.0625 L 245.441406 157.613281 C 244.519531 156.164062 243.597656 154.847656 242.679688 153.402344 C 241.230469 151.296875 239.914062 149.585938 238.464844 148.269531 C 235.964844 145.898438 233.070312 144.320312 229.777344 143.53125 C 227.671875 143.003906 225.4375 142.871094 223.328125 142.871094 C 221.355469 142.871094 219.382812 143.265625 217.539062 144.054688 C 215.300781 144.976562 213.328125 146.425781 211.222656 148.398438 C 210.035156 149.585938 208.722656 151.03125 207.40625 152.742188 C 206.089844 154.453125 204.902344 156.164062 203.71875 157.875 L 203.058594 158.929688 C 201.480469 161.035156 199.902344 163.402344 198.058594 165.511719 C 196.480469 167.351562 195.03125 168.800781 193.585938 170.117188 C 191.742188 171.695312 189.898438 173.539062 188.453125 175.511719 C 186.34375 178.277344 184.765625 181.304688 183.714844 184.332031 C 183.054688 186.4375 182.660156 188.542969 182.527344 190.648438 C 182.398438 192.492188 182.527344 194.464844 182.921875 196.175781 C 183.976562 201.046875 186.476562 204.996094 190.558594 207.890625 C 192.925781 209.601562 195.558594 210.65625 198.585938 210.917969 C 198.980469 211.050781 199.246094 211.050781 199.640625 211.050781 L 201.613281 211.050781 C 202.796875 211.050781 203.980469 210.917969 204.902344 210.785156 C 207.535156 210.257812 210.167969 209.601562 212.539062 208.941406 L 212.667969 208.941406 C 214.90625 208.417969 217.144531 207.757812 219.382812 207.363281 C 220.304688 207.230469 221.488281 206.96875 222.671875 206.96875 C 224.25 206.96875 225.699219 206.96875 227.015625 207.101562 C 228.859375 207.363281 230.964844 207.757812 233.199219 208.285156 C 234.253906 208.546875 235.4375 208.941406 236.492188 209.207031 C 237.9375 209.601562 239.519531 209.996094 241.097656 210.390625 C 242.679688 210.785156 244.386719 211.179688 246.230469 211.179688 L 249.390625 211.179688 C 249.652344 211.179688 249.785156 211.050781 250.046875 210.65625 C 250.835938 210.65625 251.757812 210.523438 252.546875 210.257812 C 254.65625 209.734375 256.761719 208.8125 258.734375 207.363281 C 261.367188 205.523438 263.472656 203.152344 264.789062 200.386719 C 266.238281 197.359375 266.894531 194.203125 266.761719 190.648438 C 266.632812 188.675781 266.238281 186.4375 265.445312 184.332031 C 264.65625 181.828125 263.472656 179.460938 261.761719 177.09375 " fill-opacity="1" fill-rule="nonzero"/></g><g clip-path="url(#0fda127e2b)"><path fill="#00bf63" d="M 284.78125 141.792969 C 284.335938 139.238281 283.203125 136.910156 281.621094 135.183594 C 279.6875 133.054688 277.292969 131.789062 274.421875 131.289062 C 272.59375 131 270.871094 131.132812 268.988281 131.5 C 266.15625 132.183594 263.550781 133.421875 261 135.59375 C 259.855469 136.554688 258.839844 137.660156 257.957031 138.765625 C 255.15625 142.238281 253.507812 146.1875 253.023438 150.375 C 252.71875 152.464844 252.8125 154.585938 253.3125 156.480469 C 253.90625 158.902344 254.917969 160.96875 256.496094 162.679688 C 258.433594 164.824219 260.960938 166.21875 263.828125 166.601562 C 264.089844 166.617188 264.355469 166.640625 264.617188 166.667969 C 266.199219 166.785156 267.921875 166.667969 269.683594 166.023438 C 272.515625 165.339844 275.148438 163.839844 277.582031 161.667969 C 279.292969 160.085938 280.769531 158.230469 281.992188 156.21875 C 283.53125 153.570312 284.558594 150.757812 284.941406 147.742188 L 284.980469 147.359375 C 285.003906 146.964844 285.046875 146.570312 285.070312 146.175781 L 285.109375 145.78125 C 285.214844 144.464844 285.058594 143.136719 284.78125 141.792969 " fill-opacity="1" fill-rule="nonzero"/></g></svg>